PathFileType	4	(X/Y/Z)	 s02c0201.trc
DataRate	CameraRate	NumFrames	NumMarkers	Units	OrigDataRate	OrigDataStartFrame	OrigNumFrames
200	200	5	51	mm	200	1751	2000
Frame#	Time	racr			lacr			c7			jug			rlel			rdr			llel			ldr			s2			lic			ric			lasi			rasi			rpsi			lpsi			rgt			lgt			rth1			rth2			rth3			rth4			rlfc			rmfc			rsh1			rsh2			rsh3			rsh4			rlmal			rmmal			rcal			rtoe			rmt5			rmt1			lth1			lth2			lth4			lth3			llfc			lmfc			lsh1			lsh2			lsh3			lsh4			llmal			lmmal			lcal			ltoe			lmt5			SBIKE			LBIKE			RBIKE			
		X1	Y1	Z1	X2	Y2	Z2	X3	Y3	Z3	X4	Y4	Z4	X5	Y5	Z5	X6	Y6	Z6	X7	Y7	Z7	X8	Y8	Z8	X9	Y9	Z9	X10	Y10	Z10	X11	Y11	Z11	X12	Y12	Z12	X13	Y13	Z13	X14	Y14	Z14	X15	Y15	Z15	X16	Y16	Z16	X17	Y17	Z17	X18	Y18	Z18	X19	Y19	Z19	X20	Y20	Z20	X21	Y21	Z21	X22	Y22	Z22	X23	Y23	Z23	X24	Y24	Z24	X25	Y25	Z25	X26	Y26	Z26	X27	Y27	Z27	X28	Y28	Z28	X29	Y29	Z29	X30	Y30	Z30	X31	Y31	Z31	X32	Y32	Z32	X33	Y33	Z33	X34	Y34	Z34	X35	Y35	Z35	X36	Y36	Z36	X37	Y37	Z37	X38	Y38	Z38	X39	Y39	Z39	X40	Y40	Z40	X41	Y41	Z41	X42	Y42	Z42	X43	Y43	Z43	X44	Y44	Z44	X45	Y45	Z45	X46	Y46	Z46	X47	Y47	Z47	X48	Y48	Z48	X49	Y49	Z49	X50	Y50	Z50	X51	Y51	Z51	
1751	8.7550	572.644541	1251.724724	-187.452808	550.002269	1241.632312	-531.289986	544.179077	1291.241229	-365.519792	508.065859	1150.971432	-353.116815	556.166481	1014.954350	-51.074674	707.439655	884.955038	-108.133460	524.285568	978.285941	-646.596281	696.904422	888.024867	-536.614827	-8.217181	1126.899973	-329.046303	130.507088	1071.804551	-460.356474	158.341753	1111.220064	-178.455855	183.500897	1087.714139	-432.864185	208.330482	1077.793609	-201.869500	49.684064	1153.035292	-265.565766	46.890059	1166.697192	-350.097851	118.540443	1016.272593	-138.435560	103.400449	1039.753933	-502.712820	186.396903	940.300483	-122.276240	244.763274	873.692570	-121.888845	264.674538	792.246073	-101.582351	272.759841	885.961884	-144.449321	306.178270	659.461633	-139.810675	302.571406	642.679826	-245.898859	287.852397	555.174238	-119.487964	294.460088	467.382301	-134.339365	258.601612	388.708032	-132.828374	310.200874	467.576854	-170.456871	230.216217	276.140475	-141.126462	241.392936	292.409036	-218.737000	148.044019	259.425766	-182.497338	403.602044	127.294161	-187.303632	299.660787	159.907866	-126.018706	328.294942	164.415043	-232.603741	235.464924	1014.767822	-501.154145	321.131114	1013.493918	-492.937197	328.663026	1043.448562	-472.156160	397.969224	967.880182	-494.677143	491.951668	930.998726	-471.279760	494.980081	904.463796	-358.790890	454.688308	841.270229	-485.326888	414.584101	766.534107	-468.709126	340.905029	714.918584	-476.262881	429.694375	756.075037	-432.162193	252.979453	642.385094	-465.579820	270.149946	633.360402	-387.080483	171.945424	623.156248	-427.520210	419.202498	478.371167	-434.752032	316.465897	509.556743	-494.542443	-162.537770	860.046722	-311.462362	37.455909	86.748962	-514.253386	33.971132	83.231025	-114.132729	
1752	8.7600	573.588320	1253.241938	-189.646818	548.029840	1242.868904	-533.546633	543.750586	1292.665853	-367.565967	507.387260	1152.487895	-354.718217	557.544032	1016.636103	-52.446836	707.396829	885.008008	-109.009793	524.198383	978.489322	-647.199946	697.136712	888.142439	-537.389295	-8.073162	1125.770301	-329.320570	130.516010	1072.128940	-460.648181	158.337647	1112.026906	-178.333111	183.439483	1086.855792	-433.304624	207.575912	1078.122128	-201.500463	49.834569	1154.457543	-265.212719	46.754731	1168.182833	-349.495541	117.593934	1017.180750	-138.603664	103.391266	1042.390723	-502.862977	185.270984	940.760560	-122.219739	243.688740	874.231316	-121.213530	263.518476	792.842136	-101.007504	271.876666	886.540712	-143.660783	305.378400	660.132315	-139.494954	302.679916	643.471065	-245.980964	285.694005	555.969465	-119.764045	290.074779	467.957629	-134.826392	253.151821	389.993974	-133.263698	306.440752	467.728241	-170.965210	222.099834	278.064854	-141.910951	234.259366	294.358380	-219.015529	139.929754	262.871817	-183.031606	393.120278	126.403030	-187.194370	289.590262	160.832477	-126.261175	318.378019	164.412353	-232.787097	234.913584	1016.863982	-500.284848	320.826986	1016.365846	-492.609031	328.248267	1046.361223	-471.778711	397.772654	970.985406	-494.255108	492.037205	934.762004	-470.982636	495.050625	908.147639	-358.478174	456.643946	844.015051	-485.143604	418.299731	768.322852	-468.706010	345.949906	715.067472	-476.587217	433.613158	758.313519	-432.042906	259.444323	640.133401	-465.972747	276.838424	631.524739	-387.527352	177.800552	619.340247	-428.502839	429.687186	480.341773	-434.733324	325.999430	508.678600	-494.704378	-162.414382	860.718697	-309.267669	37.445870	86.712284	-514.263812	33.973657	83.227055	-114.134600	
1753	8.7650	574.331121	1254.627349	-191.674777	546.101682	1244.085112	-535.694457	543.238292	1294.033865	-369.486668	506.630591	1153.941039	-356.269166	558.775341	1018.206401	-53.729470	707.342361	884.999758	-109.789635	524.118515	978.765711	-647.567921	697.294831	888.196944	-537.957955	-7.910467	1124.626033	-329.592405	130.528552	1072.464848	-460.940712	158.266109	1112.920508	-178.284914	183.374754	1086.000890	-433.744316	207.277106	1078.544729	-200.985350	49.941748	1155.893249	-264.933551	46.645123	1169.858117	-349.264762	116.835114	1017.955926	-138.652428	103.323542	1044.743425	-502.872555	184.362513	941.513972	-121.943587	243.053600	875.082251	-120.812469	263.076238	793.637098	-100.687737	271.411648	887.675918	-142.281090	305.346855	661.172193	-139.266257	303.320047	644.538715	-246.023126	284.393970	556.981657	-119.982724	286.612373	468.980670	-135.247270	247.910563	391.736459	-133.553576	303.002936	468.280185	-171.293163	214.258756	280.764836	-142.279021	226.817993	296.896459	-219.335622	131.387700	267.042122	-183.543666	382.572976	126.314859	-187.033215	279.538803	162.396577	-126.496280	308.477889	165.257943	-233.072780	234.727485	1019.366054	-500.429726	320.537405	1018.606110	-492.496528	327.952677	1048.673313	-471.636909	397.428099	973.264029	-494.041401	491.923131	937.651896	-470.800492	495.269167	910.785925	-358.406671	458.409595	846.082076	-485.123214	421.921095	769.412158	-469.003720	350.734715	714.450529	-476.855467	437.433502	759.616014	-432.493813	265.778200	637.100696	-466.508105	283.314867	629.067801	-388.259990	184.179094	614.557369	-429.263028	439.811680	481.730111	-434.980166	335.531375	507.237738	-494.693104	-162.524306	860.676703	-309.739992	37.426705	86.698440	-514.269437	33.961045	83.234472	-114.133233	
1754	8.7700	575.009160	1256.059491	-193.681588	544.196310	1245.401801	-537.647885	542.705912	1295.393052	-371.260676	505.955889	1155.359643	-357.676701	559.817648	1019.915562	-54.800045	707.378561	885.051341	-110.408416	524.009241	979.135764	-647.717178	697.410533	888.284200	-538.334596	-7.729910	1123.469377	-329.860839	130.544750	1072.811887	-461.234002	158.140533	1113.803560	-178.207909	183.306673	1085.150001	-434.183037	206.984319	1078.959055	-200.457518	50.066924	1157.319546	-264.719092	48.739636	1171.646315	-349.804577	116.162928	1018.988900	-138.623345	103.242655	1046.800054	-502.788298	183.488238	941.692900	-123.192148	242.846070	876.114383	-120.587981	263.222601	794.717130	-100.484558	271.102115	888.629993	-142.771908	306.421266	662.508628	-139.146695	304.544522	645.736132	-246.003785	283.531483	558.223124	-120.330854	283.553092	470.256558	-135.681365	243.045801	394.006479	-133.938818	299.881395	469.290628	-171.697584	206.426501	284.022322	-142.816567	219.562113	299.824370	-219.949457	123.537311	271.784984	-184.230145	372.087086	126.601938	-186.819865	269.574438	164.649039	-126.757752	299.012898	166.798220	-232.956130	234.593396	1021.278663	-500.686614	320.243190	1020.188012	-492.463568	327.758284	1050.297131	-471.702195	397.005289	974.600336	-493.957674	491.554581	939.633375	-470.745545	495.342467	912.565623	-358.502137	459.956010	847.409156	-485.255400	425.304532	769.805638	-469.470723	355.269502	713.092581	-477.451595	441.119966	760.142157	-433.004744	272.051078	633.300109	-467.111385	289.812189	625.800651	-388.826280	190.771492	608.857759	-429.959691	449.785701	482.498057	-435.283078	344.998258	505.081393	-495.033324	-162.473056	860.065841	-311.621137	37.403700	86.671631	-514.274418	33.962405	83.242084	-114.144275	
1755	8.7750	575.613369	1257.392669	-195.568955	542.328676	1246.787562	-539.446107	542.117209	1296.764073	-372.881985	505.312683	1156.757126	-359.041758	561.260107	1021.348702	-56.218033	707.484782	885.124747	-110.881031	523.807011	979.717350	-647.617323	697.467794	888.469456	-538.575419	-7.532307	1122.302543	-330.124900	130.564639	1073.169669	-461.527987	157.992757	1114.786544	-178.161762	183.235202	1084.303690	-434.620561	206.678941	1079.522776	-200.008996	50.110416	1158.734714	-264.618607	48.671543	1173.289849	-349.486076	115.607846	1019.896663	-138.548296	102.783817	1048.611724	-502.292807	183.086728	942.336714	-123.660472	243.058167	877.310626	-120.514845	264.065776	796.042959	-100.410744	271.207833	889.990236	-142.710564	308.051940	663.926861	-139.158931	306.118196	647.237443	-246.256080	283.458104	559.713770	-120.502939	280.830961	471.856645	-136.149899	238.151306	396.699407	-134.677902	297.079010	470.509750	-172.299049	198.889368	287.718970	-143.598861	212.428540	303.194989	-220.789259	115.733202	276.880058	-185.151066	361.819010	127.797290	-186.566125	259.750358	167.460081	-126.983031	289.347138	168.732916	-233.319975	234.244730	1022.374563	-500.516801	319.990646	1020.952316	-492.513230	327.654949	1051.121557	-471.985982	396.498814	975.032418	-494.080919	491.030711	940.654491	-470.831526	495.275688	913.328113	-358.689336	461.281720	847.890449	-485.554703	428.529556	769.425368	-470.197724	359.682672	711.198394	-478.150564	444.660210	759.893404	-433.716676	278.300558	628.723392	-467.774323	296.155979	621.591529	-390.141018	197.271025	602.473411	-430.571045	459.570546	482.463883	-435.326701	354.248191	502.277358	-495.364699	-162.519812	860.686392	-309.910380	37.375824	86.677252	-514.250998	33.949804	83.239758	-114.149243	
